<?xml version="1.0" encoding="utf-8"?>
<!-- Generator: Adobe Illustrator 28.2.0, SVG Export Plug-In . SVG Version: 6.00 Build 0)  -->
<svg version="1.1" id="Capa_1" xmlns="http://www.w3.org/2000/svg" xmlns:xlink="http://www.w3.org/1999/xlink" x="0px" y="0px"
	 viewBox="0 0 800 800" style="enable-background:new 0 0 800 800;" xml:space="preserve">
<style type="text/css">
	.st0{fill:#FFFFFF;}
</style>
<path class="st0" d="M799.9,459c-0.8-6.7-4.8-12.6-10.8-15.7l-0.8-0.4c-1.8-0.8-45.4-18.9-72.2-22.6c-5.1-0.7-10.4,0.3-15.3,2.7
	l-89.7,31.8c-17.5-9-83.9-43.1-162-83l184.8-97.4c5.4-2.9,8.6-7.8,8.5-13.1c-0.1-5.4-3.6-10.1-9.1-12.7L570.9,220
	c-6-2.8-15.5-3.8-22.1-2.4l-283.9,61c-58.4-29.3-106.6-53.1-126.7-62c-14.8-6.5-32.7-9.8-53.3-9.8c-34,0-75.7,9.8-83.4,24.2
	c-0.3,0.6-20.6,60.8,96.7,128.3l437.5,222.9c0.4,0.2,10.9,5.4,21,7.2c17.2,3,35.8,3.9,54.9,3.9h5.5c2.7,0,5.3,0,7.8,0h1.7v-0.6
	c12.4,0,21.5-5.4,22.9-6.4l143.1-109.1l0.3-0.4C798.2,472.4,800.6,465.8,799.9,459z M626.7,581.7L626.7,581.7L626.7,581.7
	L626.7,581.7z"/>
</svg>
