<?xml version="1.0" encoding="utf-8"?>
<!-- Generator: Adobe Illustrator 28.2.0, SVG Export Plug-In . SVG Version: 6.00 Build 0)  -->
<svg version="1.1" id="Layer_1" xmlns="http://www.w3.org/2000/svg" xmlns:xlink="http://www.w3.org/1999/xlink" x="0px" y="0px"
	 viewBox="0 0 800 800" style="enable-background:new 0 0 800 800;" xml:space="preserve">
<style type="text/css">
	.st0{fill:#FFFFFF;}
</style>
<path class="st0" d="M733.2,567.3L632,466.1c-30.6-30.6-82.1-49.2-126.7-44.8l0,0c10.3-17,19.4-35.2,27.6-54.2l-63.5-63.5
	c-77.9,29.9-131.9,86.8-165.9,165.8l63.5,63.5c19.9-6.1,37.8-14.2,53.9-24.1c-3.1,43.8,15.4,93.4,45.1,123.1l101.3,101.2
	c37.8,37.8,94.8,44.4,139.4,19.9l12.3,12.3l46.3-46.3l-12.3-12.3C777.7,662.1,771.1,605.1,733.2,567.3L733.2,567.3z M275,497.2
	c-9.5-35.6-39.7-71.5-74.5-87.2c14.9-8.2,29.3-17.7,43.6-28.3l-19.8-74c-70.3-11.1-134.5,7.9-193.4,51.8l19.8,74
	c17.3,4,34,5.6,50.1,5.2c-21,31-28.4,75.6-19.2,110.2l31.6,118c11.8,44.1,51.1,73.3,94.5,74.2l3.8,14.3l54-14.5l-3.8-14.3
	c37.1-22.5,56.6-67.4,44.8-111.5L275,497.2z M455.5,204.3C455.5,204.3,455.5,204.3,455.5,204.3c6.8,35.5,32.2,71.1,62.1,88.4
	l102.2,59c38.2,22.1,85,15.1,115.2-13.9l12.4,7.2l27-46.8L762,291c10-40.7-7.4-84.6-45.5-106.7l-102.2-59
	c-30.8-17.8-75.9-21.7-110.4-8.7c0,0,0,0,0,0.1c4.6-15.7,8-32.2,10.4-49.1l-64.1-37C394.5,71,363.7,127.8,353.6,198l64.1,37
	C432.2,225.9,444.7,215.6,455.5,204.3L455.5,204.3z M463.9,194.8L463.9,194.8L463.9,194.8z M459.8,199.6
	C459.8,199.6,459.8,199.6,459.8,199.6C459.8,199.6,459.8,199.6,459.8,199.6z"/>
</svg>
