<?xml version="1.0" encoding="utf-8"?>
<!-- Generator: Adobe Illustrator 28.2.0, SVG Export Plug-In . SVG Version: 6.00 Build 0)  -->
<svg version="1.1" xmlns="http://www.w3.org/2000/svg" xmlns:xlink="http://www.w3.org/1999/xlink" x="0px" y="0px"
	 viewBox="0 207 512 86" style="enable-background:new 0 0 512 512;" xml:space="preserve">
<style type="text/css">
	.st0{fill:#2563eb;}
	.st1{fill:#EBAEBA;}
</style>
<g id="Layer_1" xmlns:v="https://vecta.io/nano">
	<path class="st0" d="M0,272.7v-46.2h5.7v-6.4H12v-6.4h6.4v-6.3h475.2v6.5h6.4v6.3h6.4v6.4h5.6v46.2h-5.7v6.4h-6.4v6.4h-6.3v6.4H122
		v6.3h-6.3v6.4H77.3v-6.4h-6.4v-6.4H18.3v-6.4H12V279H5.6v-6.3L0,272.7L0,272.7z M487.2,213.9H24.7v6.3h-6.4v6.4h-5.4v46.2h5.6v6.3
		h6.4v6.4h52.5v6.4h6.4v6.1h25.5v-6.3h6.4v-6.4h371.6V279h6.4v-6.3h5.4v-46.2h-5.5V220h-6.3L487.2,213.9L487.2,213.9z M71,265.5v6.4
		h-6.3v6.3H45.5V272h-6.3v-6.4h-6.4v-31.9H39v-6.4h6.3V221h19.2v6.2h6.4v6.4h6.3v31.9H71L71,265.5z M51.8,227.3v6.4h-6.2v31.9h6.4
		v6.2h6.3v-6.4h6.2v-31.9h-6.4v-6.3H51.8z M102.8,246.5v-6.3h19.1v6.2h6.3v25.5h-6.2v6.4H103v6.3h6.2v6.4H83.9v-6.2H90v-38.2h-6.1
		v-6.4h12.5v6.2L102.8,246.5l0.1,25.4h12.6v-25.4L102.8,246.5L102.8,246.5z M236.9,278.2v-6.1h6.2v-44.7H237V221h44.4v12.5h-6.2
		v-6.1h-19v18.9h12.5v-6.1h6.4V259h-6.2v-6.1h-12.7v19h6.1v6.3L236.9,278.2L236.9,278.2z M224,246.4v31.9h-12.6v-31.7h-12.8v31.6
		h-12.7v-38h31.7v6.2L224,246.4L224,246.4z M415.6,278.2v-31.7h-12.8v31.7h-12.6v-38.1h31.7v6.2h6.3v31.9L415.6,278.2L415.6,278.2z
		 M370.9,271.9v6.3h-25.5v-6.1h-6.3v-25.5h6.1v-6.3h25.5v6.1h6.3v25.5H370.9L370.9,271.9z M364.4,246.6h-12.5v25.3h12.5V246.6z
		 M173,265.7v6.2h-6.2v6.3h-25.5V272h-6.3v-25.5h6.2v-6.3h25.5v6.2h6.3v12.8h-25.3v12.7h12.6v-6.1H173L173,265.7z M147.7,246.5v6.2
		h12.5v-6.2H147.7z M453.9,272h-6.3v-25.5h-6.4v-6.3h6.3v-6.4h6.3v-6.3h6.3V240h19.1v6.3h-18.9v25.5h6.2v-6.2h19.1v6.2h-6.2v6.3
		h-25.6V272L453.9,272z M313.4,252.8v6.4h-6.2v12.7h6.2v6.4H288V272h6.1v-25.5H288v-6.4H307v12.7L313.4,252.8L313.4,252.8
		L313.4,252.8z"/>
	<path class="st0" d="M313.4,252.8v-12.7h12.7v6.2h6.3v12.7h-12.5v-6.3L313.4,252.8L313.4,252.8L313.4,252.8z"/>
</g>
<g id="Layer_2">
	<polygon class="st1" points="230.1,284.6 18.5,282 26.3,215.7 230.3,216 	"/>
	<g>
		<path class="st0" d="M62.3,214.4c0.9,0,2.5-0.2,4.8-0.7c1-0.2,1.5-0.2,1.6-0.1c0.2,0.2,0.4,0.3,0.6,0.4c0.5,0.2,1,0.2,1.5,0.2H72
			c3,0,6.1,0.2,9.3,0.7c1.6,0.2,2.6,0.6,3,1c0.5,0.5,0.7,1.3,0.7,2.4c0,2.3-0.8,3.5-2.4,3.5H82c-2.3,0-5.3-0.2-8.8-0.6
			c-0.4-0.1-2-0.1-4.8-0.1c-3.1,0-5.8,0.1-8.3,0.2c-0.2,0.1-0.8,0.1-1.6,0.1c-0.2,0-0.2,0.4-0.2,1.3c0,0.4-0.1,1.7-0.4,3.9
			c-0.2,1.4-0.2,2.9-0.2,4.3c0,0.2,0,0.4,0.1,0.5v0.2c0.3,0.4,0.4,0.8,0.2,1.3c-0.2,1.1-0.4,2.7-0.5,4.8l-0.1,4h1.1
			c0.7,0,1.2-0.1,1.4-0.2c0.1-0.2,0.4-0.2,0.9,0c0.6,0.2,1.6,0.2,3,0c1.2-0.2,5.1-0.6,11.4-1c0.1,0,0.3,0,0.7-0.1
			c0.4,0,0.7-0.1,1-0.1h1.6c2.9,0,4.8,0.5,5.8,1.4c1,1,1.2,2.1,0.5,3.5c-0.4,0.7-1.4,1.2-3,1.4c-1.4,0.2-2.9,0.4-4.6,0.4h-2.4
			c-1.9,0-3.4,0.1-4.4,0.4c-0.7,0.3-3.4,0.5-8,0.6c-2.5,0.1-3.9,0.2-4.4,0.5c-0.5,0.3-0.7,1.7-0.7,4.2c0,2.5,0.1,3.9,0.4,4.1
			s0.4,2,0.4,5.3v2.5c0,0.4,0,0.9,0.1,1.4c0,0.5,0.1,0.8,0.1,0.9c0,0.2,0,0.4,0,0.6l0.1,0.5c0.2,0.4,0.3,0.6,0.4,0.7l1.9,0.2
			c0.2,0,0.5,0,0.9,0.1c0.5,0,0.8,0.1,1.2,0.1h1.7h1.6c0.2,0,0.6,0,0.9-0.1c0.4,0,0.6-0.1,0.7-0.1h3.1c0.7,0,1.7,0,2.9-0.1
			c1.2,0,1.9-0.1,2.4-0.1l6.8,0.1l1.2,0.8c0.4,0.2,0.7,0.6,1,1.1c0.1,0.1,0,0.6-0.1,1.7c-0.1,1.3-0.2,2.1-0.4,2.3
			c-0.4,0.8-1.5,1.2-3.2,1.2c-0.7,0-1.1,0-1.2-0.1c-1.3-0.3-5.2-0.5-11.6-0.5c-6.5,0-10.2,0.2-11.2,0.5c-0.8,0.2-1.5,0.2-2,0.2
			c-1.1,0-2-0.2-2.9-0.7c-0.3-0.2-0.5-1-0.6-2.4c0-1.2-0.2-2.3-0.6-3.4c-0.3-1.3-0.7-6.2-1.1-14.9c-0.1-0.7-0.1-2.9-0.1-6.5
			c0-4.5,0-8.7,0.1-12.6c0.1-3.9,0.1-7.9,0.1-12.1c0-2.2,0.2-3.9,0.6-5.1c0.3-1,1.1-1.9,2.2-2.7c1.2-0.9,2.2-1.4,3-1.4
			C56.9,214.7,59,214.6,62.3,214.4z"/>
		<path class="st0" d="M100.4,213.3l1.7-0.5c0.4,0,0.8,0.2,1.1,0.5c0.8,0.3,1.4,1.4,1.6,3.4c0.2,1.9,0.4,3.9,0.4,6.2
			c0,2,0.2,3.6,0.5,4.7c0.1,0.2,0.1,0.6,0.1,1.2c0,0.7,0,1.3-0.1,1.8c-0.1,0.5-0.1,1-0.1,1.7c0,0.8,0.2,1.4,0.5,1.7
			c0.2,0.5,0.2,0.9,0.2,1.2v1.2c0,1,0.2,1.6,0.5,1.6c0.2,0,0.6-0.2,1-0.6c0.7-0.6,2.2-1.3,4.2-1.9c2.6-0.7,4.4-1.1,5.3-1.1
			c0.5,0,1,0.1,1.5,0.2c0.4,0.2,1.6,0.6,3.5,1c1.9,0.4,2.9,0.7,3,0.8l1.5,1c0.7,0.3,1.8,1.3,3.4,2.9c1.6,1.5,2.4,2.5,2.4,2.9
			c0,0.2,0.4,0.7,1.1,1.7c0.7,1,1.2,2,1.5,3c0.8,3.9,1.2,7.8,1.2,11.6c0,4.1-0.4,6.6-1.2,7.5c-0.4,0.4-0.6,0.8-0.6,1.1
			c0,0.6-0.7,2.3-2.2,5.1c-0.2,0.4-0.8,1-1.7,1.9c-0.8,0.8-1.3,1.2-1.5,1.2c-0.4,0-0.9,0.4-1.5,1.3c-0.6,0.7-1.7,1.4-3.4,1.9
			c-1.5,0.5-3.5,0.7-6,0.7c-3.4,0-5.5-0.4-6.2-1.1c-1.1-1-2.1-1.4-3.1-1.4c-0.4,0-0.6,0.2-0.6,0.6c0,0.3-0.5,0.6-1.6,1
			c-1,0.3-1.9,0.5-2.7,0.5c-0.6,0-1.2-0.2-1.7-0.5c-0.7-0.4-1.1-0.8-1.2-1.2c-0.1-0.2-0.1-1.2-0.1-3.3V274c0-3.8-0.3-8.1-0.9-12.9
			c-0.1-0.2-0.2-2.7-0.4-7.5c-0.1-4.2-0.3-6.7-0.6-7.6c-0.2-1.1-0.2-3-0.2-5.6v-2.9v-1.4c0-3-0.2-4.7-0.5-5.3
			c-0.2-0.5-0.4-3.1-0.4-8v-4c0-2.3,0.1-3.6,0.4-4.1S99.3,213.7,100.4,213.3z M119.2,241.6c-0.6,0-1.5-0.1-2.6-0.2h-0.4
			c-0.9,0-1.9,0.3-3,1c-1,0.6-1.6,1.2-1.9,2.1c-0.3,0.6-0.7,1.1-1.1,1.7c-0.7,0.8-1,1.3-1.1,1.6c-0.5,1.4-0.7,3.3-0.7,5.4
			c0,2.6,0.3,5.5,0.9,8.8c0.2,2.6,0.9,4.8,1.9,6.8c0.7,1,1.5,1.8,2.2,2.5c1.7,1.6,3.5,2.4,5.3,2.4c0.8,0,1.4,0,1.6-0.1
			c2.2-0.4,3.6-1.2,4.5-2.5c0.3-0.6,0.7-1.2,1.1-1.6c0.3-0.4,0.7-1.2,1.2-2.5c0.2-0.7,0.6-1.6,1.1-2.5v-0.5c0.1-0.2,0.1-0.4,0.2-0.7
			c0-0.3,0.1-0.6,0.1-0.7c0.1-0.3,0.2-0.9,0.4-1.7c0.2-0.8,0.2-1.5,0.2-2.2v-2.1c0-1.2-0.1-2.1-0.2-2.5c-0.4-0.7-0.7-1.6-0.7-2.7
			c-0.2-2.3-1-3.7-2.4-4.3c-0.5-0.4-0.7-0.6-0.7-0.7c0-0.3-0.7-1.2-2.1-2.5c-1.1-1-1.7-1.6-2-1.8
			C120.7,241.7,120.1,241.6,119.2,241.6z"/>
		<path class="st0" d="M169.9,233.4c0.2-0.2,0.5-0.2,0.9-0.2c1.8,0,3.1,0.4,3.7,1.3c0.3,0.5,0.6,0.7,0.7,0.7c0.5,0,1,0.2,1.6,0.6
			c0.5,0.3,1,0.8,1.6,1.3c0.8,1,1.6,4.5,2.2,10.3c0.3,2.1,0.6,3.7,0.9,4.7c0.3,1.5,0.6,2.9,0.7,4.1c0.3,2.5,1,4.6,1.9,6.4
			c0.3,0.6,0.5,1,0.5,1.4c0,0.4,0.2,0.9,0.5,1.4c0.9,1.8,1.6,2.9,2,3.3c0.1,0.1,0.7,0.2,2,0.4c1.2,0.2,1.9,0.3,2.2,0.5
			c0.4,0.2,0.8,0.8,1.1,1.7c0.6,1.4,0.7,2.5,0.4,3.3c-0.7,1-2.2,1.6-4.6,1.6c-1.5,0-2.8-0.3-4-0.8c-0.2-0.2-0.6-0.3-1.1-0.4
			c-0.5-0.1-0.9-0.2-1.1-0.4c-0.3-0.2-0.5-0.4-0.6-0.7c-0.1-0.4-0.5-1-1.4-1.8c-1.5-1.7-2.2-3.1-2.2-4.1c0-0.2-0.2-0.4-0.6-0.8
			l-0.2-0.5c-0.1-0.2-0.2-0.6-0.5-1.1c-0.2-0.3-0.3-0.4-0.4-0.4c-0.4,0.1-1,1.3-1.6,3.6c-0.6,2.1-2.9,4.1-6.8,6
			c-1.2,0.5-2.5,0.7-3.7,0.7c-2.8,0-5.1-0.9-7-2.7c-1-1-1.9-1.6-2.7-1.9c-0.7-0.3-1.1-0.8-1.2-1.4c0-0.2-0.4-1.1-1.2-2.8
			c-0.7-1.4-1.3-3.2-1.6-5.6c-0.2-1.9-0.4-3.6-0.4-5c0-1.2,0.3-2.8,0.9-4.8c0.7-2.2,1.2-3.7,1.7-4.5c0.6-0.9,0.9-1.4,0.9-1.6
			c0-0.2,1.2-1.7,3.6-4.5c2-2.3,3.7-3.8,5.2-4.7c0.7-0.5,1.2-0.8,1.2-0.8c0.3-0.3,0.7-0.6,1-0.7c0.3-0.2,0.7-0.3,1-0.4l0.7-0.2
			c0.4-0.1,0.8-0.2,1.1-0.2c0.2-0.1,0.4-0.1,0.7-0.1h0.7c0.1,0,0.2,0,0.4-0.1h0.2c0.2,0,0.3,0,0.4-0.1H169.9z M170.4,255.7
			c0.4-6.4,0.6-10.1,0.6-11.1c0-2.9-0.2-4.3-0.7-4.3c-1.1,0.2-1.9,0.5-2.4,1c-0.4,0.4-0.9,0.6-1.5,0.6c-0.3,0-0.7,0.2-1,0.5
			c-0.2,0.2-0.3,0.3-0.5,0.4l-0.2,0.2c-0.3,0.2-0.8,0.7-1.5,1.7c-0.1,0.2-0.4,0.6-1,1.4c-0.6,0.8-1,1.4-1.4,1.9
			c-0.5,0.8-1,1.4-1.4,1.8c-0.5,0.6-0.7,1-0.7,1.4c0,0.4-0.2,0.9-0.5,1.4c-0.3,0.6-0.5,2-0.5,4.3c0,1.7,0.1,3.3,0.4,4.7
			c0.3,1.9,1.1,3.5,2.2,5c1.1,1.4,2.2,2.1,3.5,2.1h0.5c0.7-0.2,1.4-0.6,2.1-1.4c0.8-1,1.2-1.6,1.2-1.9c0-0.1,0.1-0.4,0.2-0.8
			c0.1-0.1,0.5-0.8,1.1-2.2C169.5,261.3,170,259.1,170.4,255.7z"/>
	</g>
</g>
<g id="Layer_3">
</g>
</svg>
