<?xml version="1.0" encoding="utf-8"?>
<!-- Generator: Adobe Illustrator 28.2.0, SVG Export Plug-In . SVG Version: 6.00 Build 0)  -->
<svg version="1.1" id="Layer_1" xmlns="http://www.w3.org/2000/svg" xmlns:xlink="http://www.w3.org/1999/xlink" x="0px" y="0px"
	 viewBox="0 0 800 800" style="enable-background:new 0 0 800 800;" xml:space="preserve">
<style type="text/css">
	.st0{fill-rule:evenodd;clip-rule:evenodd;fill:#FFFFFF;}
</style>
<path class="st0" d="M122.1,301.4c2.9-1.5,5.8-3,8.7-4.4c15.1-7.2,33.5-13.6,52.5-13.6c48.3,0,81.8,30.2,101,54.2
	c0.9,1.2,1.8,2.3,2.7,3.5c1.9-2.1,3.9-4.1,6-6.2c22.7-22.7,60-51.4,106.9-51.4s84.2,28.8,106.9,51.4c2.1,2.1,4.1,4.2,6,6.2
	c0.9-1.2,1.8-2.3,2.7-3.5c19.2-24,52.8-54.2,101-54.2c19,0,37.4,6.5,52.5,13.6c2.9,1.4,5.8,2.9,8.7,4.4
	c-15.9-30.4-39.9-60-70.4-86.2C549.9,165.9,474,133.3,400,133.3c-74,0-149.9,32.5-207.5,81.9C162,241.4,138,271,122.1,301.4z
	 M683.5,384.7c-3.2-2.5-6.6-5-10.2-7.6c-10.7-7.7-22-14.8-32.8-19.9c-11.2-5.3-19.2-7.2-23.9-7.2c-18.4,0-34.8,11.5-49,29.2
	c-6.7,8.4-11.9,17-15.4,23.5c-1.7,3.2-3,5.9-3.8,7.6c-0.4,0.9-0.7,1.5-0.8,1.9l-0.1,0.2l-62.5,160.8L683.5,384.7z M400,608
	l79.2-203.7c-4.9-6.5-11.5-14.5-19.4-22.5c-19-19-40-31.9-59.8-31.9c-19.8,0-40.8,12.9-59.8,31.9c-7.9,7.9-14.5,16-19.4,22.5
	L400,608z M252.4,412.4l-0.1-0.2c-0.2-0.4-0.4-1-0.8-1.9c-0.8-1.7-2.1-4.4-3.8-7.6c-3.5-6.5-8.7-15.1-15.4-23.5
	c-14.1-17.7-30.6-29.2-49-29.2c-4.7,0-12.7,1.9-23.9,7.2c-10.7,5.1-22.1,12.2-32.8,19.9c-3.6,2.5-7,5.1-10.2,7.6l198.4,188.5
	L252.4,412.4z M547.6,412.5C547.6,412.5,547.6,412.5,547.6,412.5L547.6,412.5z M149.1,164.6c67.4-57.8,158.2-97.9,250.9-97.9
	c92.6,0,183.4,40.1,250.9,97.9c67,57.4,115.8,136.7,115.8,218.8c0,9.1-3.7,17.9-10.4,24.2L423,724.2c-12.9,12.2-33,12.2-45.9,0
	L43.7,407.5c-6.6-6.3-10.4-15-10.4-24.2C33.3,301.3,82.2,222,149.1,164.6z"/>
</svg>
